[Header]
FileType HTR
DataType HTRS
FileVersion 1
NumSegments 22
NumFrames 4
DataFrameRate 24
EulerRotationOrder ZYX
CalibrationUnits mm
RotationUnits Degrees
GlobalAxisofGravity Y
BoneLengthAxis Y
ScaleFactor 1.0
[SegmentNames&Hierarchy]
reference	GLOBAL
Hips	reference
Spine	Hips
Spine1	Spine
Neck	Spine1
Head	Neck
LeftShoulder	Spine1
LeftArm	LeftShoulder
LeftForeArm	LeftArm
LeftHand	LeftForeArm
RightShoulder	Spine1
RightArm	RightShoulder
RightForeArm	RightArm
RightHand	RightForeArm
LeftUpLeg	Hips
LeftLeg	LeftUpLeg
LeftFoot	LeftLeg
LeftToeBase	LeftFoot
RightUpLeg	Hips
RightLeg	RightUpLeg
RightFoot	RightLeg
RightToeBase	RightFoot
[BasePosition]
reference	0	0	0	0	0	0	1
Hips	0	0	0	0	0	0	1
Spine	0	0	0	0	-0	90	1
Spine1	0	0	0	0	0	0	1
Neck	0	0	0	-7.352327771	-7.352327771	90	1
Head	0	0	0	0	-0	90	1
LeftShoulder	0	0	0	0	0	0	1
LeftArm	0	0	0	0	0	0	1
LeftForeArm	0	0	0	0	0	0	1
LeftHand	0	0	0	0	0	0	1
RightShoulder	0	0	0	0	-0	180	1
RightArm	0	0	0	0	-0	180	1
RightForeArm	0	0	0	0	-0	180	1
RightHand	0	0	0	0	-0	180	1
LeftUpLeg	0	0	0	0	-0	-90	1
LeftLeg	0	0	0	0	-0	-90	1
LeftFoot	0	0	0	66.57146043	-66.57146043	-90	1
LeftToeBase	0	0	0	0	-90	0	1
RightUpLeg	0	0	0	0	-0	-90	1
RightLeg	0	0	0	0	-0	-90	1
RightFoot	0	0	0	66.57146043	-66.57146043	-90	1
RightToeBase	0	0	0	0	-90	0	1
[reference]
1	0	0	0	0	-0	0	1.0
2	0	0	0	0	-0	0	1.0
3	0	0	0	0	-0	0	1.0
4	0	0	0	0	-0	0	1.0
[Hips]
1	7.389410019	8.686689377	2.925849915	-11.82662964	-102.6624222	14.51737976	1.0
2	7.389410019	8.686689377	2.944798946	-10.59678841	-102.8377609	13.58616447	1.0
3	7.389410019	8.686689377	2.963677406	-10.76028633	-102.8908691	13.85621452	1.0
4	7.389410019	8.684920311	2.982251167	-10.96412754	-102.8401337	14.07364845	1.0
[Spine]
1	0	0.7457100153	0	-9.460279465	2.130021334	-89.08022308	1.0
2	0	0.7457100153	0	-9.75879097	2.414099693	-89.13739014	1.0
3	0	0.7457100153	0	-9.81772995	2.570985556	-89.13368225	1.0
4	0	0.7457100153	0	-9.743019104	2.518411636	-89.07479858	1.0
[Spine1]
1	0	2.140589952	0	9.379899979	0.5487923622	1.652942777	1.0
2	0	2.140589952	0	9.415410042	0.6439536214	1.513599396	1.0
3	0	2.140589952	0	9.538574219	0.690101862	1.546769142	1.0
4	0	2.140589952	0	9.418886185	0.6788157225	1.473976851	1.0
[Neck]
1	0	2.32246995	0	-12.4889164	5.734946728	-89.85202789	1.0
2	0	2.32246995	0	-12.57512283	5.695991993	-89.84353638	1.0
3	0	2.32246995	0	-12.68649864	5.635349274	-89.73583984	1.0
4	0	2.32246995	0	-12.67467785	5.624298096	-89.81259155	1.0
[Head]
1	0	1.409579992	0.1818799973	-4.27515173	-1.466450095	-92.40398407	1.0
2	0	1.409579992	0.1818799973	-4.318728447	-1.509100795	-92.39620209	1.0
3	0	1.409579992	0.1818799973	-4.369642258	-1.579161406	-92.38871765	1.0
4	0	1.409579992	0.1818799973	-4.317569256	-1.600041032	-92.23455811	1.0
[LeftShoulder]
1	0.3668199778	1.946700096	-0.02662999928	-14.24816418	-12.62292671	-4.847646236	1.0
2	0.3668199778	1.946700096	-0.02662999928	-14.23495483	-12.58639526	-4.920801163	1.0
3	0.3668199778	1.946700096	-0.02662999928	-14.59128666	-12.62052917	-4.73818922	1.0
4	0.3668199778	1.946700096	-0.02662999928	-14.46054077	-12.51762104	-4.802963257	1.0
[LeftArm]
1	1.140689969	0	0	38.50767136	17.38516235	-75.15444183	1.0
2	1.140689969	0	0	38.89215088	17.62041092	-75.19211578	1.0
3	1.140689969	0	0	37.85989761	17.92042732	-75.45671082	1.0
4	1.140689969	0	0	38.53268433	18.13871384	-75.6091156	1.0
[LeftForeArm]
1	2.749800205	0	0	-14.4553566	-13.08133125	2.480829	1.0
2	2.749800205	0	0	-14.86436081	-13.21208572	2.643079519	1.0
3	2.749800205	0	0	-14.29399014	-13.0279274	2.119011641	1.0
4	2.749800205	0	0	-14.63833618	-12.92907238	2.315903664	1.0
[LeftHand]
1	2.295179844	0	0	-14.1879425	-3.716558218	0.5273268223	1.0
2	2.295179844	0	0	-14.57525921	-3.505185843	0.5582745075	1.0
3	2.295179844	0	0	-14.06776237	-3.487704277	0.5182765722	1.0
4	2.295179844	0	0	-14.3895874	-3.533000469	0.4444987178	1.0
[RightShoulder]
1	-0.3601199985	1.946700096	-0.02662999928	-6.05673933	4.041057587	177.7036743	1.0
2	-0.3601199985	1.946700096	-0.02662999928	-6.004677773	4.067698956	177.7129211	1.0
3	-0.3601199985	1.946700096	-0.02662999928	-6.246910095	4.022926807	177.6205444	1.0
4	-0.3601199985	1.946700096	-0.02662999928	-6.167259693	4.089199066	177.7027588	1.0
[RightArm]
1	-1.140689969	0	0	56.29773712	-1.543016791	-98.28902435	1.0
2	-1.140689969	0	0	56.56102371	-1.508208275	-98.21308899	1.0
3	-1.140689969	0	0	56.91390228	-1.761705041	-97.97901917	1.0
4	-1.140689969	0	0	56.66511536	-1.787697673	-97.96512604	1.0
[RightForeArm]
1	-2.749800205	0	0	-2.953683138	12.58577347	176.3414764	1.0
2	-2.749800205	0	0	-2.487356663	12.43006897	176.5703888	1.0
3	-2.749800205	0	0	-2.749044895	12.38455391	176.5125732	1.0
4	-2.749800205	0	0	-2.921747208	12.52347469	176.5981293	1.0
[RightHand]
1	-2.295179844	0	0	-2.897783756	8.464561462	175.3044128	1.0
2	-2.295179844	0	0	-2.47079277	8.607831001	175.2598114	1.0
3	-2.295179844	0	0	-2.711236477	8.643110275	175.4940948	1.0
4	-2.295179844	0	0	-2.862570524	8.7311306	175.8875732	1.0
[LeftUpLeg]
1	0.9094099998	0	0	5.461995602	4.381392002	90.34544373	1.0
2	0.9094099998	0	0	5.006998062	4.60244894	89.86680603	1.0
3	0.9094099998	0	0	4.960594654	4.656529427	89.84228516	1.0
4	0.9094099998	0	0	4.804795265	4.152543068	89.72631073	1.0
[LeftLeg]
1	0	-4.498080254	0	0.8475535512	-5.616060257	87.96154022	1.0
2	0	-4.498080254	0	0.9281612635	-5.313582897	88.02772522	1.0
3	0	-4.498080254	0	0.9929331541	-5.557332516	88.13861084	1.0
4	0	-4.498080254	0	1.467684031	-5.406167984	88.11856079	1.0
[LeftFoot]
1	0	-3.729400158	0	-79.57485199	111.6717377	-32.42779541	1.0
2	0	-3.729400158	0	-79.27011871	111.6115417	-32.47621918	1.0
3	0	-3.729400158	0	-79.05233002	111.4048538	-32.04644012	1.0
4	0	-3.729400158	0	-78.99441528	111.5854645	-31.57330513	1.0
[LeftToeBase]
1	0	-0.5911099911	1.364109993	0	0	0	1.0
2	0	-0.5911099911	1.364109993	0	0	0	1.0
3	0	-0.5911099911	1.364109993	0	0	0	1.0
4	0	-0.5911099911	1.364109993	0	0	0	1.0
[RightUpLeg]
1	-0.9094099998	0	0	2.71648407	-3.382180929	92.8608017	1.0
2	-0.9094099998	0	0	2.038379669	-3.231680393	92.4781723	1.0
3	-0.9094099998	0	0	1.87225914	-3.492065907	92.50282288	1.0
4	-0.9094099998	0	0	1.777323008	-3.682342052	92.4624176	1.0
[RightLeg]
1	0	-4.498080254	0	4.755313396	-2.412743092	90.03662872	1.0
2	0	-4.498080254	0	5.234518051	-2.530338764	90.05327606	1.0
3	0	-4.498080254	0	5.543904305	-2.169638634	89.95402527	1.0
4	0	-4.498080254	0	5.879065037	-1.780333757	89.92321777	1.0
[RightFoot]
1	0	-3.729400158	0	48.93942261	61.867939	89.35494995	1.0
2	0	-3.729400158	0	49.46696472	61.81951141	89.9379425	1.0
3	0	-3.729400158	0	49.42617035	61.59381104	90.02844238	1.0
4	0	-3.729400158	0	48.5788269	61.47361374	89.40014648	1.0
[RightToeBase]
1	0	-0.5911099911	1.364109993	0	0	0	1.0
2	0	-0.5911099911	1.364109993	0	0	0	1.0
3	0	-0.5911099911	1.364109993	0	0	0	1.0
4	0	-0.5911099911	1.364109993	0	0	0	1.0
[EndOfFile]
